<?xml version="1.0" standalone="no"?>
<!DOCTYPE svg PUBLIC "-//W3C//DTD SVG 20010904//EN"
 "http://www.w3.org/TR/2001/REC-SVG-20010904/DTD/svg10.dtd">
<svg version="1.0" xmlns="http://www.w3.org/2000/svg"
 width="380.000000pt" height="380.000000pt" viewBox="0 0 380.000000 380.000000"
 preserveAspectRatio="xMidYMid meet">
<metadata>
Created by potrace 1.11, written by Peter Selinger 2001-2013
</metadata>
<g transform="translate(0.000000,380.000000) scale(0.100000,-0.100000)"
fill="#000000" stroke="none">
<path d="M9 3131 c0 -215 0 -488 0 -606 0 -299 -3 -272 24 -272 18 1 98 -9
227 -28 14 -2 48 -7 75 -10 60 -7 177 -23 260 -35 33 -5 85 -12 115 -15 30 -3
82 -10 115 -15 33 -5 78 -11 100 -14 22 -3 58 -8 80 -10 201 -26 436 -57 463
-61 17 -3 47 -7 65 -9 17 -3 55 -8 82 -12 28 -3 64 -8 80 -10 35 -4 278 -37
480 -64 127 -18 162 -22 260 -34 36 -5 113 -16 140 -21 11 -2 38 -4 60 -4 57
-1 31 -18 -40 -25 -58 -7 -85 -10 -150 -21 -16 -3 -52 -7 -80 -10 -27 -3 -61
-7 -75 -10 -14 -2 -50 -7 -80 -10 -30 -3 -62 -8 -70 -10 -8 -2 -40 -7 -70 -10
-51 -5 -172 -21 -230 -30 -32 -5 -105 -15 -150 -20 -46 -5 -198 -25 -230 -30
-24 -4 -63 -9 -155 -21 -22 -3 -51 -7 -65 -9 -14 -2 -63 -9 -110 -15 -47 -5
-96 -12 -110 -14 -14 -2 -50 -7 -80 -11 -71 -8 -108 -13 -305 -41 -16 -2 -46
-6 -65 -8 -80 -10 -362 -48 -456 -61 -56 -8 -103 -15 -105 -15 -5 0 0 -1253 5
-1257 2 -3 787 330 851 361 17 8 212 92 435 187 223 95 412 176 420 180 8 4
470 202 1025 440 556 237 1018 436 1028 441 15 8 -56 42 -352 169 -205 87
-386 165 -404 173 -18 8 -140 60 -272 117 -132 56 -258 109 -280 119 -22 9
-53 23 -70 30 -42 18 -603 259 -642 276 -56 24 -91 39 -313 134 -213 91 -249
107 -313 134 -71 31 -1093 469 -1104 473 -10 4 -13 -77 -14 -386z"/>
</g>
</svg>
